<svg width="440" height="280" viewBox="0 0 440 280" xmlns="http://www.w3.org/2000/svg">
  <defs>
    <linearGradient id="pbg" x1="0" y1="0" x2="440" y2="280" gradientUnits="userSpaceOnUse">
      <stop offset="0" stop-color="#6366F1"/>
      <stop offset="1" stop-color="#4338CA"/>
    </linearGradient>
    <linearGradient id="lbg" x1="0" y1="0" x2="128" y2="128" gradientUnits="userSpaceOnUse">
      <stop offset="0" stop-color="#A5B4FC"/>
      <stop offset="1" stop-color="#4F46E5"/>
    </linearGradient>
  </defs>

  <rect width="440" height="280" fill="url(#pbg)"/>

  <!-- logo badge -->
  <g transform="translate(174,28) scale(0.72)">
    <rect width="128" height="128" rx="28" fill="url(#lbg)"/>
    <path d="M30 28 h68 a14 14 0 0 1 14 14 v34 a14 14 0 0 1 -14 14 H58 l-14 16 v-16 h-14 a14 14 0 0 1 -14 -14 V42 a14 14 0 0 1 14 -14 Z" fill="#FFFFFF"/>
    <rect x="34" y="39" width="60" height="9" rx="4.5" fill="#4338CA"/>
    <rect x="34" y="55" width="60" height="9" rx="4.5" fill="#F59E0B"/>
    <rect x="34" y="71" width="38" height="9" rx="4.5" fill="#4338CA"/>
  </g>

  <text x="220" y="198" text-anchor="middle" font-family="Arial, Helvetica, sans-serif" font-size="46" font-weight="700" fill="#FFFFFF">Quibble</text>
  <text x="220" y="230" text-anchor="middle" font-family="Arial, Helvetica, sans-serif" font-size="17" font-weight="500" fill="#C7D2FE">Review AI answers like a pull request</text>
</svg>
